<?xml version="1.0" encoding="utf-8"?>
<!-- Generator: Adobe Illustrator 24.0.1, SVG Export Plug-In . SVG Version: 6.00 Build 0)  -->
<svg version="1.1" id="Layer_1" xmlns="http://www.w3.org/2000/svg" xmlns:xlink="http://www.w3.org/1999/xlink" x="0px" y="0px"
	 viewBox="0 0 1000 1000" style="enable-background:new 0 0 1000 1000;" xml:space="preserve">
<g fill="#ef4444">
	<path d="M450.9,732.6c66.7,0,133.3,0.2,200,0c136-0.4,238-100.8,241.3-236.8c1.2-49.1,0.5-97.8-23.3-142.7
		c-32.3-60.9-101.4-95-172.9-85.4c-65.2,8.7-124.9,62.5-137.7,127.8c-4.4,22.5-3.8,46.6-1.5,69.6c3.1,30.8-14.9,57.6-46.6,63.1
		c-29.3,5.1-54.6-13.5-60.3-44.3C420.7,327.3,530.1,180.5,688,159.5c147.4-19.6,295,92.9,308.2,245.9c6.7,77.3,5.7,153.5-24.8,226.4
		c-53.3,127.1-183,211.6-321.5,210.9c-137.1-0.7-274.2-0.8-411.3-1.3c-9.5,0-19.1-0.3-28.4-1.9c-26.4-4.4-43.5-25.2-43.7-52
		c-0.2-26.6,15.1-46.5,40.9-52.1c8.6-1.9,17.6-2.6,26.4-2.6C306.1,732.5,378.5,732.6,450.9,732.6z"/>
	<path d="M477.8,242.8c-20.5,32.6-39.6,63-58.3,92.9c-9.8-9.3-20.7-21.4-33.3-31.4c-50-39.9-106.3-50.6-165.9-27.6
		c-63.9,24.6-100.5,73-108.5,141.4c-2.8,24.5-3.8,49.3-3.9,74c-0.4,96.4-0.1,192.9-0.2,289.4c0,36.7-21.4,59.6-54.6,59.1
		C21.2,840,0.7,817,0.6,781.2c0-111-0.5-222.1,0.3-333.1C1.5,372.8,23,304.9,74.8,247.8c105.1-115.8,287.6-121.2,397.9-11
		C474.9,239,476.7,241.5,477.8,242.8z"/>
	<path d="M427.5,614.8c-65.7,27.7-125.6,27.3-184.4-5.4c-34.7-19.3-47.9-55.4-34.5-92.1c12.9-35.7,48.6-56.1,86.3-49.1
		c24.7,4.6,44.1,17.9,53.5,41C364.9,550,387.1,586,427.5,614.8z"/>
	<path d="M571.5,615.3c38.2-28.9,61.9-62.2,77.3-102.5c12.5-32.9,44.6-49,81.9-45.1c27.8,2.9,56.5,29.1,62.4,56.8
		c8,37.9-4.7,67.1-37.3,85.2C696.7,642.2,636.8,642,571.5,615.3z"/>
</g>
</svg>
